<svg width="257" height="32" viewBox="0 0 257 32" fill="none" xmlns="http://www.w3.org/2000/svg">
<path fill-rule="evenodd" clip-rule="evenodd" d="M14.299 31.8319L27.5227 24.1605C27.6249 24.1012 27.7098 24.016 27.7688 23.9135C27.8278 23.811 27.8588 23.6948 27.8587 23.5765L27.827 8.2886C27.8267 8.17025 27.7953 8.05409 27.7359 7.95173C27.6765 7.84937 27.5912 7.76442 27.4887 7.70538L14.2332 0.0903441C14.1307 0.0311585 14.0144 0 13.896 0C13.7778 0 13.6614 0.0311585 13.5589 0.0903441L0.335196 7.76244C0.232834 7.82163 0.147925 7.90681 0.0890655 8.00937C0.0302053 8.11192 -0.000518369 8.2282 6.61677e-06 8.34644L0.0317025 23.6343C0.0317769 23.7527 0.0631125 23.8687 0.122531 23.9711C0.18195 24.0734 0.267344 24.1581 0.370062 24.2168L13.6255 31.8319C13.7279 31.891 13.8439 31.9222 13.9622 31.9222C14.0805 31.9222 14.1966 31.891 14.299 31.8319ZM18.0353 13.6207L23.8507 10.2062C23.9014 10.1762 23.9433 10.1335 23.9723 10.0823C24.0014 10.0311 24.0165 9.97321 24.0164 9.91433C24.0161 9.85546 24.0004 9.79767 23.971 9.7467C23.9416 9.69574 23.8993 9.65337 23.8483 9.6238L14.2404 4.10468C14.138 4.04549 14.0218 4.01432 13.9036 4.01432C13.7854 4.01432 13.6692 4.04549 13.5668 4.10468L3.81307 9.76168C3.71062 9.82103 3.6256 9.90633 3.56662 10.009C3.50763 10.1117 3.47675 10.2281 3.4771 10.3465L3.48582 13.5787C3.48588 13.6969 3.51714 13.813 3.57641 13.9153C3.63567 14.0175 3.72085 14.1024 3.82338 14.1611L10.1246 17.784C10.2274 17.843 10.3128 17.928 10.3722 18.0306C10.4316 18.1332 10.4629 18.2495 10.463 18.368V21.6098C10.4629 21.6492 10.4525 21.6879 10.4328 21.7219C10.4131 21.7561 10.3847 21.7844 10.3507 21.8041C10.3166 21.8239 10.2779 21.8343 10.2385 21.8344C10.1991 21.8344 10.1604 21.8243 10.1262 21.8047L7.17923 20.1113C7.11097 20.0713 7.05451 20.014 7.01555 19.9451C6.9766 19.8762 6.95652 19.7982 6.95736 19.719L6.95338 18.6557C6.95291 18.5364 6.92083 18.4194 6.86042 18.3165C6.80001 18.2136 6.71342 18.1285 6.60948 18.0701L3.98344 16.597C3.93218 16.5683 3.87426 16.5534 3.81547 16.5539C3.75668 16.5544 3.69905 16.5704 3.64833 16.6001C3.59761 16.6298 3.55555 16.6724 3.52635 16.7234C3.49714 16.7744 3.48179 16.8321 3.48184 16.891V18.9108L3.48898 21.6256C3.48906 21.7439 3.52039 21.8601 3.57981 21.9623C3.63923 22.0647 3.72462 22.1494 3.82734 22.208L13.2792 27.6218C13.3476 27.661 13.4251 27.6815 13.5039 27.6812C13.5826 27.6811 13.6601 27.6601 13.7283 27.6205C13.7965 27.5809 13.853 27.5241 13.8922 27.4557C13.9315 27.3874 13.9521 27.31 13.9519 27.2311L13.9361 16.3363C13.9359 16.2179 13.9044 16.1017 13.845 15.9993C13.7856 15.8969 13.7003 15.8121 13.5977 15.7531L7.32978 12.15C7.29554 12.1304 7.26708 12.102 7.24729 12.0679C7.2275 12.0337 7.21708 11.9949 7.21708 11.9555C7.21708 11.916 7.2275 11.8772 7.24729 11.8431C7.26708 11.8089 7.29554 11.7806 7.32978 11.7609L13.5787 8.14597C13.6812 8.08678 13.7976 8.05562 13.9159 8.05562C14.0343 8.05562 14.1505 8.08678 14.253 8.14597L17.0796 9.77199C17.1138 9.79162 17.1422 9.81995 17.162 9.8541C17.1818 9.88827 17.1923 9.92704 17.1923 9.96652C17.1923 10.006 17.1818 10.0448 17.162 10.0789C17.1422 10.1131 17.1138 10.1414 17.0796 10.1611L14.5882 11.5969C14.536 11.6271 14.4927 11.6707 14.4632 11.7233C14.4335 11.7759 14.4186 11.8355 14.4198 11.8958C14.4212 11.9562 14.4386 12.0151 14.4705 12.0663C14.5024 12.1176 14.5474 12.1593 14.6009 12.1872L17.3839 13.6373C17.4849 13.69 17.5977 13.7161 17.7117 13.7131C17.8256 13.7102 17.9369 13.6784 18.0353 13.6207Z" fill="white"/>
<path d="M17.3672 18.1071L17.3728 21.9217C17.3729 22.0005 17.3938 22.0779 17.4332 22.1463C17.4727 22.2145 17.5295 22.2711 17.5978 22.3105C17.6662 22.3498 17.7437 22.3704 17.8225 22.3704C17.9014 22.3703 17.9789 22.3494 18.0471 22.3099L21.3435 20.3979C21.4457 20.3383 21.5304 20.253 21.5893 20.1503C21.6481 20.0477 21.6789 19.9313 21.6787 19.8131L21.6708 16.0024C21.6707 15.9235 21.6498 15.8461 21.6103 15.7778C21.5709 15.7096 21.514 15.653 21.4457 15.6136C21.3774 15.5742 21.2998 15.5536 21.221 15.5537C21.1421 15.5537 21.0647 15.5746 20.9965 15.6141L17.7032 17.5229C17.6007 17.5822 17.5157 17.6673 17.4567 17.7698C17.3977 17.8724 17.3668 17.9887 17.3672 18.1071Z" fill="#FF4F20"/>
<path d="M108.523 17.5074V24.5162C108.522 24.6175 108.481 24.7144 108.409 24.7857C108.337 24.8572 108.24 24.8972 108.139 24.8972H105.313C105.211 24.8972 105.114 24.8568 105.042 24.7848C104.97 24.7128 104.929 24.6153 104.929 24.5135V24.2789C104.929 24.2576 104.923 24.2369 104.912 24.2188C104.9 24.2008 104.884 24.1863 104.865 24.1768C104.846 24.1674 104.825 24.1635 104.803 24.1655C104.782 24.1674 104.762 24.1753 104.745 24.1881C103.946 24.8064 102.878 25.2457 101.43 25.2457C98.8169 25.2457 97.0664 23.7352 97.0664 21.4342C97.0664 19.1548 98.8169 17.6674 101.948 17.6674H104.703C104.764 17.667 104.823 17.6424 104.867 17.599C104.91 17.5556 104.934 17.4969 104.935 17.4355C104.935 16.4592 104.257 15.8084 103.278 15.8084C102.299 15.8084 101.664 16.1542 101.403 16.9379C101.374 17.0285 101.313 17.1052 101.231 17.1537C101.149 17.2023 101.053 17.219 100.959 17.2009L98.105 16.626C98.063 16.6176 98.0232 16.6005 97.988 16.5759C97.9529 16.5512 97.9235 16.5194 97.9014 16.4827C97.8793 16.4458 97.865 16.4049 97.8598 16.3623C97.8545 16.3197 97.8581 16.2766 97.8705 16.2355C98.501 14.1704 100.487 12.8877 103.15 12.8877C106.447 12.8809 108.523 14.5311 108.523 17.5074ZM104.929 20.2965V20.1609C104.929 20.1304 104.917 20.101 104.896 20.0794C104.874 20.0577 104.845 20.0457 104.814 20.0457H102.363C101.43 20.0457 100.847 20.5338 100.847 21.2538C100.847 21.9982 101.499 22.4633 102.474 22.4633C103.763 22.4565 104.929 21.5996 104.929 20.2965Z" fill="white"/>
<path d="M112.207 20.9241C112.207 21.5288 112.651 21.9478 113.327 21.9478C113.679 21.9234 114.025 21.8499 114.357 21.7295C114.398 21.7166 114.441 21.7127 114.484 21.7177C114.527 21.7227 114.568 21.7367 114.605 21.7587C114.642 21.7806 114.674 21.8102 114.699 21.8453C114.724 21.8804 114.741 21.9204 114.75 21.9627L115.205 24.2366C115.222 24.3204 115.21 24.4075 115.172 24.4838C115.134 24.5601 115.071 24.6216 114.994 24.6583C114.228 25.0579 113.375 25.2606 112.511 25.2481C110.084 25.2481 108.475 23.621 108.475 21.2034V7.38373C108.475 7.28195 108.515 7.18435 108.587 7.11238C108.659 7.04042 108.757 7 108.858 7H111.824C111.925 7 112.023 7.04042 112.095 7.11238C112.167 7.18435 112.207 7.28195 112.207 7.38373V20.9241Z" fill="white"/>
<path d="M126.111 24.8972H123.147C123.045 24.8972 122.947 24.8568 122.875 24.7848C122.803 24.7128 122.763 24.6153 122.763 24.5135V24.0566C122.763 24.034 122.757 24.0121 122.745 23.9932C122.733 23.9744 122.715 23.9595 122.695 23.9505C122.674 23.9414 122.651 23.9389 122.629 23.9427C122.607 23.9466 122.587 23.957 122.57 23.9725C121.7 24.786 120.536 25.2457 119.17 25.2457C116.439 25.2457 114.619 23.3162 114.619 20.3874V13.6077C114.619 13.5058 114.66 13.4081 114.731 13.3359C114.803 13.2637 114.901 13.223 115.003 13.2227H117.945C118.047 13.223 118.145 13.2637 118.217 13.3359C118.289 13.4081 118.329 13.5058 118.329 13.6077V19.5928C118.329 20.965 119.143 21.8979 120.336 21.8979C121.806 21.8979 122.763 20.8986 122.763 18.6437V13.6145C122.763 13.564 122.773 13.514 122.792 13.4673C122.811 13.4205 122.839 13.3781 122.875 13.3423C122.91 13.3065 122.953 13.2781 122.999 13.2588C123.046 13.2394 123.096 13.2294 123.147 13.2294H126.111C126.213 13.2294 126.311 13.27 126.383 13.3422C126.455 13.4144 126.496 13.5124 126.496 13.6145V24.5162C126.495 24.6176 126.454 24.7146 126.382 24.7859C126.309 24.8572 126.212 24.8972 126.111 24.8972Z" fill="white"/>
<path d="M137.993 20.0162H130.22C130.204 20.0164 130.186 20.0202 130.172 20.0273C130.157 20.0345 130.143 20.045 130.132 20.0579C130.121 20.0707 130.115 20.0859 130.109 20.1021C130.105 20.1183 130.105 20.1353 130.108 20.1518C130.432 21.463 131.335 22.2657 132.512 22.2657C133.287 22.2657 134.18 22.084 134.791 21.1444C134.833 21.0778 134.896 21.0257 134.967 20.9952C135.041 20.9646 135.121 20.9571 135.198 20.9735L137.667 21.5078C137.724 21.5191 137.777 21.5433 137.823 21.5783C137.869 21.6132 137.906 21.6583 137.933 21.7098C137.959 21.7613 137.972 21.8181 137.974 21.8759C137.975 21.9336 137.963 21.9909 137.938 22.0433C136.905 24.2128 134.946 25.2542 132.515 25.2542C129.243 25.2542 126.536 22.7674 126.536 19.0711C126.536 15.3979 129.248 12.8867 132.536 12.8867C135.74 12.8867 138.311 15.2583 138.379 19.0711V19.6393C138.376 19.7402 138.336 19.8363 138.262 19.9068C138.191 19.9773 138.093 20.0166 137.993 20.0162ZM130.3 17.7383H134.658C134.676 17.7383 134.694 17.7339 134.71 17.7258C134.726 17.7176 134.74 17.7059 134.751 17.6913C134.761 17.6768 134.768 17.66 134.771 17.6423C134.775 17.6245 134.774 17.6063 134.768 17.5891C134.401 16.4366 133.53 15.901 132.534 15.901C132.017 15.9031 131.514 16.0661 131.095 16.3671C130.675 16.6682 130.359 17.0924 130.192 17.581C130.185 17.5987 130.182 17.6177 130.185 17.6366C130.186 17.6554 130.193 17.6734 130.204 17.6892C130.215 17.7049 130.23 17.7178 130.246 17.7269C130.262 17.7358 130.281 17.7407 130.3 17.741V17.7383Z" fill="white"/>
<path d="M80.201 22.7035C81.9953 22.7035 83.4498 21.085 83.4498 19.0885C83.4498 17.0921 81.9953 15.4736 80.201 15.4736C78.4067 15.4736 76.9521 17.0921 76.9521 19.0885C76.9521 21.085 78.4067 22.7035 80.201 22.7035Z" fill="#FF4F20"/>
<path d="M47.3552 13.7784L44.3287 14.394C44.2535 14.4083 44.1755 14.3939 44.1106 14.3534C44.0455 14.313 43.998 14.2495 43.9775 14.1757C43.6114 12.9282 42.5023 12.314 41.3728 12.314C40.1172 12.314 39.3186 12.992 39.3186 13.8597C39.3186 14.474 39.5897 14.9282 40.5511 15.133L43.724 15.8381C46.3708 16.4293 47.9274 17.8625 47.9274 20.272C47.9274 23.5262 45.0284 25.2062 41.6277 25.2062C38.3301 25.2062 35.5965 23.7079 35.008 20.9676C34.9977 20.9186 34.9973 20.868 35.0068 20.8188C35.0165 20.7697 35.0356 20.7229 35.0634 20.6813C35.0912 20.6396 35.127 20.6039 35.1686 20.5762C35.2104 20.5486 35.2571 20.5295 35.3064 20.5201L38.5484 19.8937C38.6213 19.8793 38.697 19.8923 38.7607 19.9304C38.8246 19.9685 38.872 20.0287 38.8941 20.0998C39.3348 21.4855 40.3857 22.0916 41.8338 22.0916C43.248 22.0916 44.0928 21.4543 44.0928 20.5228C44.0928 19.8448 43.7728 19.4082 42.6786 19.1804L39.4826 18.5025C37.2914 18.0021 35.3755 16.8659 35.3755 14.0916C35.3755 11.1357 37.8392 9.29297 41.423 9.29297C44.5945 9.29297 46.9403 10.7845 47.6494 13.3133C47.6624 13.3632 47.665 13.4153 47.657 13.4663C47.649 13.5173 47.6307 13.5661 47.6032 13.6096C47.5755 13.6533 47.5393 13.6907 47.4966 13.7197C47.454 13.7488 47.4059 13.7687 47.3552 13.7784Z" fill="white"/>
<path d="M60.7239 19.0666C60.7239 22.7425 57.7992 25.194 54.3416 25.194C50.8161 25.194 47.8887 22.7425 47.8887 19.0666C47.8887 15.4056 50.8134 12.9649 54.3416 12.9649C57.7992 12.9554 60.7239 15.4056 60.7239 19.0666ZM57.1497 19.0666C57.1497 17.2618 55.7802 16.0591 54.3416 16.0591C52.8324 16.0591 51.4629 17.2618 51.4629 19.0666C51.4629 20.893 52.8324 22.0727 54.3416 22.0727C55.7802 22.0672 57.1497 20.8876 57.1497 19.0666Z" fill="white"/>
<path d="M72.9821 13.7784L69.9557 14.394C69.8804 14.4083 69.8025 14.3939 69.7375 14.3534C69.6724 14.313 69.625 14.2495 69.6045 14.1757C69.2384 12.9282 68.1292 12.314 66.9998 12.314C65.7442 12.314 64.9455 12.992 64.9455 13.8597C64.9455 14.474 65.2167 14.9282 66.1781 15.133L69.3509 15.8381C71.9977 16.4293 73.5543 17.8625 73.5543 20.272C73.5543 23.5262 70.6553 25.2062 67.2547 25.2062C63.957 25.2062 61.2235 23.7079 60.635 20.9676C60.6247 20.9186 60.6243 20.868 60.6338 20.8188C60.6434 20.7697 60.6625 20.7229 60.6903 20.6813C60.7181 20.6396 60.7539 20.6039 60.7955 20.5762C60.8373 20.5486 60.8841 20.5295 60.9333 20.5201L64.1753 19.8937C64.2483 19.8793 64.3239 19.8923 64.3877 19.9304C64.4515 19.9685 64.499 20.0287 64.5211 20.0998C64.9618 21.4855 66.0126 22.0916 67.4608 22.0916C68.875 22.0916 69.7197 21.4543 69.7197 20.5228C69.7197 19.8448 69.3998 19.4082 68.3055 19.1804L65.1096 18.5025C62.9184 18.0021 61.0025 16.8659 61.0025 14.0916C61.0025 11.1357 63.4662 9.29297 67.0499 9.29297C70.2214 9.29297 72.5672 10.7845 73.2764 13.3133C73.2894 13.3632 73.2919 13.4153 73.2839 13.4663C73.2759 13.5173 73.2576 13.5661 73.2301 13.6096C73.2025 13.6533 73.1663 13.6907 73.1235 13.7197C73.081 13.7488 73.0328 13.7687 72.9821 13.7784Z" fill="white"/>
<path d="M86.3519 19.0666C86.3519 22.7425 83.4271 25.194 79.9695 25.194C76.4441 25.194 73.5166 22.7425 73.5166 19.0666C73.5166 15.4056 76.4413 12.9649 79.9695 12.9649C83.4271 12.9554 86.3519 15.4056 86.3519 19.0666ZM82.7776 19.0666C82.7776 17.2618 81.4081 16.0591 79.9695 16.0591C78.4603 16.0591 77.0908 17.2618 77.0908 19.0666C77.0908 20.893 78.4603 22.0727 79.9695 22.0727C81.4081 22.0672 82.7776 20.8876 82.7776 19.0666Z" fill="white"/>
<path d="M93.6304 25.2386H90.5497C90.4443 25.238 90.3416 25.2069 90.2536 25.1488C90.1657 25.0908 90.0967 25.0085 90.0548 24.9118L83.5734 9.72535C83.5535 9.67853 83.5455 9.62748 83.5501 9.57679C83.5547 9.5261 83.5718 9.47734 83.5999 9.43488C83.6279 9.39243 83.666 9.35759 83.7109 9.33351C83.7558 9.30943 83.806 9.29685 83.8568 9.29688H87.3741C87.4807 9.29746 87.5847 9.3294 87.6731 9.38873C87.7616 9.44803 87.8308 9.5321 87.8717 9.63043L91.9734 19.6088C91.9821 19.6298 91.9969 19.6478 92.0159 19.6604C92.0348 19.673 92.0571 19.6798 92.0799 19.6798C92.1026 19.6798 92.1249 19.673 92.1439 19.6604C92.1628 19.6478 92.1776 19.6298 92.1863 19.6088L96.311 9.63857C96.3521 9.54071 96.4211 9.45708 96.5093 9.39803C96.5976 9.33896 96.7011 9.3071 96.8073 9.30638H100.333C100.384 9.30656 100.433 9.3193 100.478 9.34348C100.523 9.36765 100.561 9.40252 100.589 9.44494C100.617 9.48736 100.634 9.53603 100.638 9.58661C100.643 9.6372 100.635 9.68813 100.615 9.73484L94.1348 24.9213C94.0908 25.0177 94.0197 25.0991 93.93 25.1555C93.8404 25.2117 93.7363 25.2408 93.6304 25.2386Z" fill="white"/>
<path d="M144.995 10.4545V25H141.48V10.4545H144.995ZM152.542 14.66C153.715 14.66 154.655 15.0467 155.362 15.82C156.082 16.58 156.442 17.5867 156.442 18.84V25H153.262V19.52C153.262 18.9333 153.102 18.46 152.782 18.1C152.462 17.7267 152.048 17.54 151.542 17.54C150.888 17.54 150.375 17.7733 150.002 18.24C149.642 18.6933 149.462 19.3933 149.462 20.34V25H146.262V14.96H149.462V15.92C150.262 15.08 151.288 14.66 152.542 14.66ZM168.185 9.6V25H164.985V24.2C164.172 24.9333 163.132 25.3 161.865 25.3C160.505 25.3 159.345 24.8067 158.385 23.82C157.438 22.82 156.965 21.54 156.965 19.98C156.965 18.4333 157.438 17.16 158.385 16.16C159.345 15.16 160.505 14.66 161.865 14.66C163.132 14.66 164.172 15.0267 164.985 15.76V9.6H168.185ZM162.525 22.58C163.192 22.58 163.765 22.34 164.245 21.86C164.738 21.3667 164.985 20.74 164.985 19.98C164.985 19.2333 164.738 18.6133 164.245 18.12C163.765 17.6267 163.192 17.38 162.525 17.38C161.818 17.38 161.238 17.6267 160.785 18.12C160.332 18.6 160.105 19.22 160.105 19.98C160.105 20.7533 160.332 21.38 160.785 21.86C161.238 22.34 161.818 22.58 162.525 22.58ZM179.336 19.98V20.8H171.976C172.109 21.4 172.369 21.8733 172.756 22.22C173.143 22.5667 173.603 22.74 174.136 22.74C175.136 22.74 175.849 22.3533 176.276 21.58L179.116 22.16C178.689 23.2 178.043 23.9867 177.176 24.52C176.323 25.04 175.309 25.3 174.136 25.3C172.656 25.3 171.403 24.8067 170.376 23.82C169.349 22.82 168.836 21.54 168.836 19.98C168.836 18.4333 169.349 17.16 170.376 16.16C171.403 15.16 172.663 14.66 174.156 14.66C175.609 14.66 176.829 15.1467 177.816 16.12C178.803 17.0933 179.309 18.38 179.336 19.98ZM174.156 17.26C173.689 17.26 173.256 17.4 172.856 17.68C172.456 17.96 172.183 18.3467 172.036 18.84H176.176C176.029 18.32 175.776 17.9267 175.416 17.66C175.056 17.3933 174.636 17.26 174.156 17.26ZM186.691 20.14L190.011 25H186.331L184.411 22.1L182.471 25H178.811L182.111 20.14L178.811 14.94H182.471L184.411 18.06L186.331 14.94H190.011L186.691 20.14ZM199.973 19.98V20.8H192.613C192.746 21.4 193.006 21.8733 193.393 22.22C193.779 22.5667 194.239 22.74 194.773 22.74C195.773 22.74 196.486 22.3533 196.913 21.58L199.753 22.16C199.326 23.2 198.679 23.9867 197.813 24.52C196.959 25.04 195.946 25.3 194.773 25.3C193.293 25.3 192.039 24.8067 191.013 23.82C189.986 22.82 189.473 21.54 189.473 19.98C189.473 18.4333 189.986 17.16 191.013 16.16C192.039 15.16 193.299 14.66 194.793 14.66C196.246 14.66 197.466 15.1467 198.453 16.12C199.439 17.0933 199.946 18.38 199.973 19.98ZM194.793 17.26C194.326 17.26 193.893 17.4 193.493 17.68C193.093 17.96 192.819 18.3467 192.673 18.84H196.813C196.666 18.32 196.413 17.9267 196.053 17.66C195.693 17.3933 195.273 17.26 194.793 17.26ZM199.957 22.38L203.077 21.74C203.21 22.5267 203.803 22.92 204.857 22.92C205.257 22.92 205.57 22.8467 205.797 22.7C206.037 22.54 206.157 22.3467 206.157 22.12C206.157 21.7467 205.823 21.5 205.157 21.38L203.117 20.98C201.17 20.62 200.197 19.6467 200.197 18.06C200.197 17.0333 200.597 16.2133 201.397 15.6C202.197 14.9733 203.237 14.66 204.517 14.66C205.743 14.66 206.757 14.92 207.557 15.44C208.37 15.96 208.877 16.66 209.077 17.54L206.157 18.12C206.103 17.7867 205.923 17.5067 205.617 17.28C205.323 17.0533 204.943 16.94 204.477 16.94C204.077 16.94 203.783 17.02 203.597 17.18C203.423 17.3267 203.337 17.5067 203.337 17.72C203.337 18.08 203.59 18.3133 204.097 18.42L206.457 18.9C207.377 19.1 208.07 19.4667 208.537 20C209.003 20.52 209.237 21.16 209.237 21.92C209.237 23 208.817 23.8333 207.977 24.42C207.137 25.0067 206.037 25.3 204.677 25.3C203.41 25.3 202.343 25.06 201.477 24.58C200.623 24.0867 200.117 23.3533 199.957 22.38Z" fill="#FF4F20"/>
<path d="M213.875 17.7273C213.875 15.9659 214.109 14.3442 214.578 12.8622C215.052 11.3802 215.774 10.0071 216.744 8.7429H219.635C219.266 9.21165 218.922 9.78456 218.605 10.4616C218.288 11.134 218.011 11.8726 217.774 12.6776C217.537 13.4825 217.353 14.3158 217.22 15.1776C217.088 16.0346 217.021 16.8845 217.021 17.7273C217.021 18.8494 217.135 19.9834 217.362 21.1293C217.594 22.2704 217.907 23.331 218.3 24.3111C218.697 25.2912 219.143 26.0938 219.635 26.7188H216.744C215.774 25.4545 215.052 24.0814 214.578 22.5994C214.109 21.1174 213.875 19.4934 213.875 17.7273ZM228.338 14.6378C228.282 14.0649 228.038 13.6198 227.607 13.3026C227.176 12.9853 226.591 12.8267 225.853 12.8267C225.351 12.8267 224.927 12.8977 224.581 13.0398C224.236 13.1771 223.971 13.3688 223.786 13.6151C223.606 13.8613 223.516 14.1406 223.516 14.4531C223.507 14.7135 223.561 14.9408 223.679 15.1349C223.802 15.3291 223.971 15.4972 224.184 15.6392C224.397 15.7765 224.643 15.8973 224.922 16.0014C225.202 16.1009 225.5 16.1861 225.817 16.2571L227.124 16.5696C227.758 16.7116 228.341 16.901 228.871 17.1378C229.401 17.3745 229.861 17.6657 230.249 18.0114C230.637 18.357 230.938 18.7642 231.151 19.233C231.369 19.7017 231.48 20.2391 231.485 20.8452C231.48 21.7353 231.253 22.5071 230.803 23.1605C230.358 23.8092 229.714 24.3134 228.871 24.6733C228.033 25.0284 227.022 25.206 225.838 25.206C224.664 25.206 223.641 25.026 222.77 24.6662C221.904 24.3063 221.227 23.7737 220.739 23.0682C220.256 22.358 220.003 21.4796 219.979 20.4332H222.955C222.988 20.9209 223.128 21.3281 223.374 21.6548C223.625 21.9768 223.959 22.2206 224.375 22.3864C224.797 22.5473 225.273 22.6278 225.803 22.6278C226.324 22.6278 226.776 22.5521 227.159 22.4006C227.548 22.2491 227.848 22.0384 228.061 21.7685C228.275 21.4986 228.381 21.1884 228.381 20.8381C228.381 20.5114 228.284 20.2367 228.09 20.0142C227.9 19.7917 227.621 19.6023 227.252 19.446C226.887 19.2898 226.44 19.1477 225.909 19.0199L224.326 18.6222C223.099 18.3239 222.131 17.8575 221.421 17.223C220.711 16.5885 220.358 15.7339 220.363 14.6591C220.358 13.7784 220.592 13.009 221.066 12.3509C221.544 11.6927 222.2 11.179 223.033 10.8097C223.866 10.4403 224.813 10.2557 225.874 10.2557C226.953 10.2557 227.896 10.4403 228.701 10.8097C229.51 11.179 230.14 11.6927 230.59 12.3509C231.04 13.009 231.272 13.7713 231.286 14.6378H228.338ZM240.444 14.6378C240.387 14.0649 240.143 13.6198 239.712 13.3026C239.281 12.9853 238.697 12.8267 237.958 12.8267C237.456 12.8267 237.032 12.8977 236.687 13.0398C236.341 13.1771 236.076 13.3688 235.891 13.6151C235.711 13.8613 235.621 14.1406 235.621 14.4531C235.612 14.7135 235.666 14.9408 235.785 15.1349C235.908 15.3291 236.076 15.4972 236.289 15.6392C236.502 15.7765 236.748 15.8973 237.028 16.0014C237.307 16.1009 237.605 16.1861 237.923 16.2571L239.229 16.5696C239.864 16.7116 240.446 16.901 240.977 17.1378C241.507 17.3745 241.966 17.6657 242.354 18.0114C242.743 18.357 243.043 18.7642 243.256 19.233C243.474 19.7017 243.585 20.2391 243.59 20.8452C243.585 21.7353 243.358 22.5071 242.908 23.1605C242.463 23.8092 241.819 24.3134 240.977 24.6733C240.138 25.0284 239.128 25.206 237.944 25.206C236.77 25.206 235.747 25.026 234.876 24.6662C234.009 24.3063 233.332 23.7737 232.844 23.0682C232.362 22.358 232.108 21.4796 232.085 20.4332H235.06C235.094 20.9209 235.233 21.3281 235.479 21.6548C235.73 21.9768 236.064 22.2206 236.481 22.3864C236.902 22.5473 237.378 22.6278 237.908 22.6278C238.429 22.6278 238.881 22.5521 239.265 22.4006C239.653 22.2491 239.954 22.0384 240.167 21.7685C240.38 21.4986 240.487 21.1884 240.487 20.8381C240.487 20.5114 240.389 20.2367 240.195 20.0142C240.006 19.7917 239.727 19.6023 239.357 19.446C238.993 19.2898 238.545 19.1477 238.015 19.0199L236.431 18.6222C235.205 18.3239 234.237 17.8575 233.526 17.223C232.816 16.5885 232.463 15.7339 232.468 14.6591C232.463 13.7784 232.698 13.009 233.171 12.3509C233.649 11.6927 234.305 11.179 235.138 10.8097C235.972 10.4403 236.919 10.2557 237.979 10.2557C239.059 10.2557 240.001 10.4403 240.806 10.8097C241.616 11.179 242.246 11.6927 242.695 12.3509C243.145 13.009 243.377 13.7713 243.391 14.6378H240.444ZM247.734 10.4545V25H244.659V10.4545H247.734ZM254.307 17.7273C254.307 19.4934 254.07 21.1174 253.597 22.5994C253.128 24.0814 252.408 25.4545 251.438 26.7188H248.547C248.916 26.25 249.259 25.6771 249.577 25C249.894 24.3229 250.171 23.5843 250.408 22.7841C250.644 21.9792 250.829 21.1458 250.962 20.2841C251.094 19.4223 251.161 18.5701 251.161 17.7273C251.161 16.6051 251.045 15.4735 250.812 14.3324C250.585 13.1866 250.273 12.1259 249.875 11.1506C249.482 10.1705 249.039 9.3679 248.547 8.7429H251.438C252.408 10.0071 253.128 11.3802 253.597 12.8622C254.07 14.3442 254.307 15.9659 254.307 17.7273Z" fill="white"/>
</svg>
