<svg width="361" height="482" viewBox="0 0 361 482" fill="none" xmlns="http://www.w3.org/2000/svg">
<g opacity="0.5">
<mask id="mask0_3058_95021" style="mask-type:alpha" maskUnits="userSpaceOnUse" x="-179" y="0" width="720" height="482">
<rect width="719.195" height="482" transform="matrix(1 0 0 -1 -179 482)" fill="url(#paint0_radial_3058_95021)"/>
</mask>
<g mask="url(#mask0_3058_95021)">
<path d="M540.195 0H-179V482H540.195V0Z" stroke="#946117" stroke-width="0.634211"/>
<path d="M509.15 20.8062H-147.954V461.193H509.15V20.8062Z" stroke="#946117" stroke-width="0.634211"/>
<path d="M478.104 41.6128H-116.909V440.387H478.104V41.6128Z" stroke="#946117" stroke-width="0.634211"/>
<path d="M447.059 62.4189H-85.864V419.581H447.059V62.4189Z" stroke="#946117" stroke-width="0.634211"/>
<path d="M416.014 83.2251H-54.8186V398.774H416.014V83.2251Z" stroke="#946117" stroke-width="0.634211"/>
<path d="M384.968 104.032H-23.7739V377.969H384.968V104.032Z" stroke="#946117" stroke-width="0.634211"/>
<path d="M353.923 124.838H7.27148V357.162H353.923V124.838Z" stroke="#946117" stroke-width="0.634211"/>
<path d="M322.878 145.644H38.3167V336.355H322.878V145.644Z" stroke="#946117" stroke-width="0.634211"/>
<path d="M291.833 166.45H69.3623V315.549H291.833V166.45Z" stroke="#946117" stroke-width="0.634211"/>
<path d="M260.788 187.257H100.407V294.743H260.788V187.257Z" stroke="#946117" stroke-width="0.634211"/>
<path d="M100.407 294.743L-179 482" stroke="#946117" stroke-width="0.634211"/>
<path d="M118.228 294.743L-77.4154 482" stroke="#946117" stroke-width="0.634211"/>
<path d="M136.047 294.743L5.75773 482" stroke="#946117" stroke-width="0.634211"/>
<path d="M153.867 294.743L79.0005 482" stroke="#946117" stroke-width="0.634211"/>
<path d="M171.688 294.743L147.216 481.996" stroke="#946117" stroke-width="0.634211"/>
<path d="M189.507 294.743L213.979 481.996" stroke="#946117" stroke-width="0.634211"/>
<path d="M207.328 294.743L282.195 482" stroke="#946117" stroke-width="0.634211"/>
<path d="M225.147 294.743L355.437 482" stroke="#946117" stroke-width="0.634211"/>
<path d="M242.968 294.743L438.611 482" stroke="#946117" stroke-width="0.634211"/>
<path d="M260.787 294.743L540.194 482" stroke="#946117" stroke-width="0.634211"/>
<path d="M100.407 187.257L-179 -9.75051e-05" stroke="#946117" stroke-width="0.634211"/>
<path d="M100.407 199.2L-179 68.081" stroke="#946117" stroke-width="0.634211"/>
<path d="M100.407 211.143L-179 123.824" stroke="#946117" stroke-width="0.634211"/>
<path d="M100.407 223.086L-179 172.911" stroke="#946117" stroke-width="0.634211"/>
<path d="M100.407 235.029L-179 218.646" stroke="#946117" stroke-width="0.634211"/>
<path d="M100.407 246.972L-179 263.355" stroke="#946117" stroke-width="0.634211"/>
<path d="M100.407 258.915L-179 309.09" stroke="#946117" stroke-width="0.634211"/>
<path d="M100.407 270.857L-179 358.177" stroke="#946117" stroke-width="0.634211"/>
<path d="M100.407 282.8L-179 413.919" stroke="#946117" stroke-width="0.634211"/>
<path d="M100.407 294.743L-179 482" stroke="#946117" stroke-width="0.634211"/>
<path d="M260.788 187.257L540.195 -9.75051e-05" stroke="#946117" stroke-width="0.634211"/>
<path d="M242.967 187.257L438.61 -0.000108934" stroke="#946117" stroke-width="0.634211"/>
<path d="M225.147 187.257L355.437 -8.81621e-05" stroke="#946117" stroke-width="0.634211"/>
<path d="M207.329 187.257L282.196 -0.000107583" stroke="#946117" stroke-width="0.634211"/>
<path d="M189.508 187.257L213.98 0.00389011" stroke="#946117" stroke-width="0.634211"/>
<path d="M171.688 187.257L147.217 0.00389011" stroke="#946117" stroke-width="0.634211"/>
<path d="M153.868 187.257L79.001 -0.000107583" stroke="#946117" stroke-width="0.634211"/>
<path d="M136.048 187.257L5.75842 -8.81621e-05" stroke="#946117" stroke-width="0.634211"/>
<path d="M118.228 187.257L-77.4149 -0.000108934" stroke="#946117" stroke-width="0.634211"/>
<path d="M100.408 187.257L-178.999 -9.75051e-05" stroke="#946117" stroke-width="0.634211"/>
<path d="M260.788 294.743L540.195 482" stroke="#946117" stroke-width="0.634211"/>
<path d="M260.788 282.8L540.195 413.919" stroke="#946117" stroke-width="0.634211"/>
<path d="M260.788 270.857L540.195 358.176" stroke="#946117" stroke-width="0.634211"/>
<path d="M260.788 258.914L540.195 309.089" stroke="#946117" stroke-width="0.634211"/>
<path d="M260.788 246.972L540.195 263.355" stroke="#946117" stroke-width="0.634211"/>
<path d="M260.788 235.029L540.195 218.646" stroke="#946117" stroke-width="0.634211"/>
<path d="M260.788 223.085L540.195 172.91" stroke="#946117" stroke-width="0.634211"/>
<path d="M260.788 211.143L540.195 123.824" stroke="#946117" stroke-width="0.634211"/>
<path d="M260.788 199.2L540.195 68.081" stroke="#946117" stroke-width="0.634211"/>
<path d="M260.788 187.257L540.195 -9.75051e-05" stroke="#946117" stroke-width="0.634211"/>
</g>
</g>
<defs>
<radialGradient id="paint0_radial_3058_95021" cx="0" cy="0" r="1" gradientUnits="userSpaceOnUse" gradientTransform="translate(359.597 241) rotate(90) scale(241 359.597)">
<stop stop-color="white" stop-opacity="0"/>
<stop offset="1" stop-color="white" stop-opacity="0.8"/>
</radialGradient>
</defs>
</svg>
